<?xml version="1.0" encoding="iso-8859-1"?>
<!-- Generator: Adobe Illustrator 19.0.0, SVG Export Plug-In . SVG Version: 6.00 Build 0)  -->
<svg width="48px" height="48px" version="1.1" id="Layer_1" xmlns="http://www.w3.org/2000/svg" xmlns:xlink="http://www.w3.org/1999/xlink" x="0px" y="0px"
	 viewBox="0 0 512.002 512.002" style="enable-background:new 0 0 512.002 512.002;" xml:space="preserve">
<path style="fill:#EAB96C;" d="M356.3,445.566c-1.685,0.476-3.986,0.988-6.705,1.511c-36.66,7.158-69.718,26.76-93.481,55.577
	c-23.762-28.817-56.832-48.419-93.481-55.577c-2.731-0.523-5.031-1.034-6.716-1.511c-79.595-22.136-126.33-112.305-89.402-193.155
	l16.07-35.185c7.495-16.407,11.143-33.86,11.143-51.173c0-31.466-12.05-62.479-34.929-85.974l71.299-71.996
	c17.244,14.896,39.705,23.89,64.269,23.89c23.391,0,44.864-8.18,61.747-21.81c16.883,13.63,38.357,21.81,61.747,21.81
	c24.564,0,47.025-8.994,64.269-23.89l71.299,71.996c-22.879,23.507-34.929,54.52-34.929,85.986c0,17.313,3.637,34.755,11.132,51.162
	l16.082,35.185C482.642,333.261,435.907,423.43,356.3,445.566z"/>
<path style="fill:#FCCC8B;" d="M256.116,455.195c-24.948-20.625-54.896-34.916-87.022-41.191l-0.127-0.024
	c-2.789-0.533-3.831-0.825-3.874-0.838l-0.145-0.041c-29.697-8.259-54.345-29.363-67.626-57.9
	c-13.249-28.468-13.303-60.002-0.155-88.791l16.07-35.185c9.415-20.611,14.189-42.539,14.189-65.173
	c0-29.869-8.326-58.543-23.863-83.287l31.067-31.37c18.375,9.316,38.828,14.274,59.738,14.274c21.572,0,42.822-5.352,61.747-15.35
	c18.925,9.998,40.174,15.35,61.747,15.35c20.909,0,41.363-4.959,59.738-14.275l31.069,31.373
	c-15.539,24.75-23.866,53.43-23.866,83.296c0,22.643,4.77,44.567,14.178,65.163l16.084,35.19
	c13.145,28.781,13.091,60.312-0.158,88.779c-13.281,28.538-37.934,49.643-67.635,57.902l-0.144,0.041
	c-0.043,0.012-1.089,0.304-3.893,0.844C311.039,420.271,281.071,434.565,256.116,455.195z"/>
<path style="fill:#EAB96C;" d="M256.336,340.79c-57.792,0-104.809-47.017-104.809-104.809s47.017-104.809,104.809-104.809
	s104.809,47.017,104.809,104.809S314.128,340.79,256.336,340.79z"/>
<polygon style="fill:#FCCC8B;" points="256.336,160.618 281.791,202.8 329.775,213.973 297.523,251.218 301.724,300.307 
	256.336,281.142 210.948,300.307 215.149,251.218 182.897,213.973 230.881,202.8 "/>
<path d="M337.948,211.911c-0.944-2.905-3.337-5.102-6.312-5.795l-44.4-10.339l-23.554-39.032c-1.577-2.614-4.407-4.212-7.461-4.212
	s-5.884,1.598-7.461,4.212l-23.554,39.032l-44.4,10.339c-2.973,0.693-5.368,2.891-6.312,5.795c-0.944,2.904-0.299,6.09,1.7,8.398
	l29.843,34.463l-3.887,45.423c-0.26,3.042,1.09,5.998,3.56,7.793c1.513,1.099,3.31,1.665,5.123,1.665c1.146,0,2.3-0.227,3.389-0.687
	l41.997-17.732l41.999,17.732c2.811,1.189,6.041,0.817,8.511-0.978s3.821-4.751,3.56-7.793l-3.887-45.422l29.843-34.463
	C338.246,218.001,338.892,214.815,337.948,211.911z M290.82,246.144c-1.54,1.779-2.296,4.104-2.095,6.448l2.97,34.699
	l-32.084-13.546c-1.084-0.458-2.237-0.687-3.389-0.687c-1.153,0-2.307,0.229-3.389,0.687l-32.083,13.546l2.969-34.7
	c0.201-2.344-0.555-4.669-2.095-6.448l-22.798-26.327l33.918-7.899c2.291-0.533,4.269-1.971,5.485-3.986l17.993-29.817
	l17.994,29.817c1.215,2.014,3.193,3.451,5.485,3.986l33.918,7.899L290.82,246.144z"/>
<path d="M453.525,249.419l-16.081-35.182c-6.864-15.025-10.344-31.02-10.344-47.541c0-30.023,11.528-58.402,32.46-79.908
	c3.313-3.405,3.29-8.836-0.053-12.21L388.209,2.583c-3.224-3.256-8.421-3.459-11.888-0.462
	c-16.253,14.039-37.054,21.771-58.573,21.771c-20.706,0-40.165-6.873-56.273-19.877c-3.194-2.578-7.755-2.577-10.948,0
	c-16.107,13.004-35.567,19.877-56.273,19.877c-21.52,0-42.32-7.732-58.572-21.77c-3.467-2.997-8.665-2.795-11.889,0.462
	L52.495,74.58c-3.343,3.376-3.366,8.808-0.051,12.212c20.931,21.494,32.459,49.868,32.459,79.895c0,16.51-3.485,32.51-10.357,47.553
	l-16.07,35.185c-18.387,40.258-18.288,84.403,0.28,124.304c18.523,39.803,53.044,69.279,94.676,80.856
	c1.873,0.53,4.381,1.097,7.418,1.678c34.65,6.767,66.055,25.437,88.427,52.569c1.656,2.008,4.122,3.171,6.724,3.171
	c2.603,0,5.067-1.162,6.723-3.171c22.376-27.134,53.78-45.804,88.403-52.563c3.092-0.595,5.514-1.142,7.397-1.673
	c41.672-11.59,76.199-41.064,94.723-80.867C471.814,333.824,471.914,289.679,453.525,249.419z M437.444,366.37
	c-16.37,35.175-46.839,61.21-83.592,71.43c-0.013,0.003-0.024,0.007-0.037,0.01c-0.953,0.27-2.763,0.72-6.003,1.343
	c-35.25,6.882-67.487,24.827-91.811,50.92c-24.321-26.089-56.564-44.035-91.843-50.926c-3.212-0.615-5.026-1.065-6.019-1.347
	c-36.749-10.22-67.213-36.255-83.582-71.429c-16.383-35.202-16.463-74.165-0.228-109.71l16.069-35.183
	c7.918-17.332,11.932-35.767,11.932-54.794c0-31.725-11.168-61.848-31.622-85.729l59.961-60.547
	c18.335,13.535,40.62,20.911,63.584,20.911c22.09,0,43.763-6.923,61.747-19.611c17.985,12.688,39.657,19.611,61.747,19.611
	c22.966,0,45.247-7.374,63.585-20.911l59.962,60.548c-20.453,23.89-31.623,54.018-31.623,85.74c0,19.037,4.01,37.469,11.921,54.785
	l16.081,35.182C453.907,292.207,453.826,331.169,437.444,366.37z"/>
<path d="M406.795,228.238c-8.886-19.451-13.391-40.158-13.391-61.543c0-27.983,7.791-55.183,22.532-78.662
	c2.154-3.429,1.662-7.89-1.188-10.766L383.68,45.894c-2.663-2.69-6.76-3.351-10.132-1.641
	c-17.208,8.722-36.502,13.332-55.799,13.332c-19.972,0-39.917-4.959-57.677-14.34c-2.545-1.346-5.594-1.347-8.141,0
	c-17.758,9.382-37.704,14.34-57.677,14.34c-19.297,0-38.591-4.611-55.798-13.332c-3.376-1.713-7.469-1.048-10.132,1.641
	L97.256,77.265c-2.849,2.877-3.341,7.337-1.188,10.767c14.738,23.471,22.528,50.668,22.528,78.653
	c0,21.376-4.508,42.084-13.402,61.553l-16.07,35.185c-14.225,31.146-14.161,65.27,0.18,96.088
	c3.549,7.624,7.906,14.863,12.951,21.514c2.91,3.836,8.376,4.586,12.21,1.677c3.835-2.908,4.585-8.376,1.677-12.21
	c-4.297-5.665-8.009-11.834-11.035-18.335c-12.155-26.12-12.201-55.061-0.128-81.493l16.07-35.183
	c9.938-21.757,14.978-44.902,14.978-68.795c0-28.928-7.458-57.114-21.628-81.96l21.95-22.163
	c18.13,8.163,38.016,12.454,57.905,12.454c21.284,0,42.535-4.93,61.747-14.292c19.212,9.362,40.462,14.292,61.747,14.292
	c19.887,0,39.774-4.291,57.906-12.455l21.952,22.167c-14.17,24.851-21.63,53.042-21.63,81.968c0,23.902,5.036,47.045,14.967,68.786
	l16.083,35.189c12.071,26.426,12.024,55.363-0.131,81.482c-12.203,26.223-34.827,45.607-62.081,53.186l-0.11,0.031
	c-0.009,0.002-0.92,0.244-3.25,0.693c-31.022,6.056-60.418,19.361-85.451,38.618c-25.024-19.254-54.387-32.552-85.379-38.604
	l-0.134-0.026c-2.275-0.436-3.178-0.675-3.183-0.676l-0.139-0.038c-12.949-3.601-24.813-9.798-35.264-18.416
	c-3.714-3.062-9.205-2.534-12.268,1.178c-3.062,3.714-2.534,9.206,1.178,12.268c12.345,10.181,26.369,17.503,41.689,21.763
	l0.051,0.014c0.323,0.094,1.614,0.444,4.655,1.026l0.1,0.019c30.441,5.946,59.19,19.555,83.139,39.355
	c1.612,1.332,3.582,1.999,5.553,1.999c1.971,0,3.941-0.666,5.553-1.999c23.954-19.803,52.737-33.418,83.214-39.369
	c2.81-0.54,4.134-0.882,4.592-1.009l0.132-0.037c32.163-8.944,58.843-31.768,73.202-62.621c14.342-30.817,14.406-64.938,0.182-96.08
	L406.795,228.238z"/>
<path d="M303.088,133.217c-14.774-6.722-30.542-10.13-46.867-10.13c-62.597,0-113.524,50.927-113.524,113.524
	c0,62.598,50.927,113.524,113.524,113.524s113.524-50.927,113.524-113.524c0-34.829-15.706-67.26-43.092-88.979
	c-3.768-2.991-9.252-2.358-12.243,1.413c-2.991,3.772-2.359,9.253,1.413,12.244c23.191,18.393,36.492,45.847,36.492,75.323
	c0,52.987-43.108,96.094-96.094,96.094s-96.094-43.108-96.094-96.094s43.108-96.094,96.094-96.094
	c13.817,0,27.156,2.882,39.65,8.565c4.383,1.995,9.548,0.056,11.542-4.324C309.404,140.377,307.469,135.21,303.088,133.217z"/>
<g>
</g>
<g>
</g>
<g>
</g>
<g>
</g>
<g>
</g>
<g>
</g>
<g>
</g>
<g>
</g>
<g>
</g>
<g>
</g>
<g>
</g>
<g>
</g>
<g>
</g>
<g>
</g>
<g>
</g>
</svg>
